<?xml version="1.0" encoding="UTF-8" standalone="no"?>
<svg width="25px" height="46px" viewBox="0 0 25 46" version="1.1" xmlns="http://www.w3.org/2000/svg" xmlns:xlink="http://www.w3.org/1999/xlink" xmlns:sketch="http://www.bohemiancoding.com/sketch/ns">
    <!-- Generator: Sketch 3.2 (9961) - http://www.bohemiancoding.com/sketch -->
    <title>Slice 1</title>
    <desc>Created with Sketch.</desc>
    <defs></defs>
    <g id="Page-1" stroke="none" stroke-width="1" fill="none" fill-rule="evenodd" sketch:type="MSPage">
        <path d="M7.504,30.472 L2.704,30.472 L2.064,0.968 L8.016,0.968 L7.504,30.472 Z M5.136,37.192 C6.33067264,37.192 7.34399584,37.6079958 8.176,38.44 C9.00800416,39.2720042 9.424,40.2639942 9.424,41.416 C9.424,42.6106726 9.00800416,43.6239958 8.176,44.456 C7.34399584,45.2880042 6.33067264,45.704 5.136,45.704 C3.94132736,45.704 2.93867072,45.2880042 2.128,44.456 C1.31732928,43.6239958 0.912,42.6106726 0.912,41.416 C0.912,40.2639942 1.31732928,39.2720042 2.128,38.44 C2.93867072,37.6079958 3.94132736,37.192 5.136,37.192 L5.136,37.192 Z" id="!" fill="#494949" sketch:type="MSShapeGroup"></path>
    </g>
</svg>